<?xml version="1.0" encoding="utf-8"?>
<!-- Generator: Adobe Illustrator 26.0.3, SVG Export Plug-In . SVG Version: 6.00 Build 0)  -->
<svg version="1.1" id="Layer_1" xmlns="http://www.w3.org/2000/svg" xmlns:xlink="http://www.w3.org/1999/xlink" x="0px" y="0px"
	 viewBox="0 0 800 1084.5" style="enable-background:new 0 0 800 1084.5;" xml:space="preserve">
<style type="text/css">
	.st0{fill:#FFFFFF;stroke:#FFFFFF;stroke-width:18;stroke-miterlimit:10;}
	.st1{fill:#0D68A3;}
	.st2{fill:#FAFDFA;}
	.st3{fill:none;stroke:#FFFFFF;stroke-width:27;stroke-linecap:round;stroke-linejoin:round;stroke-miterlimit:10;}
	.st4{fill:#EE3235;}
	.st5{fill:#FFFFFF;}
	.st6{fill:none;stroke:#FFFFFF;stroke-width:28;stroke-linecap:round;stroke-linejoin:round;stroke-miterlimit:10;}
	.st7{fill:none;stroke:#0D68A3;stroke-width:2;stroke-linecap:round;stroke-linejoin:round;stroke-miterlimit:10;}
</style>
<g>
	<g>
		<path class="st0" d="M121.7,977.4h-8.2c-9,14-13.5,27.5-13.5,40.6c0,14.8,4.5,28.9,13.4,42.4h8.1c-4.9-8.7-8.1-15.7-9.7-21.2
			c-2.1-6.4-3.1-13.4-3.1-20.9c0-9.6,1.9-18.5,5.6-26.5c1.5-3.2,2.8-6,4.1-8.4C119.5,980.9,120.6,978.9,121.7,977.4z"/>
		<path class="st0" d="M169.9,1002c-4.8-5-11.1-7.5-19.1-7.5c-11.7,0-20,5.7-24.8,17.2h8.5c3.6-6.6,9.1-9.9,16.4-9.9
			c2.8,0,5.3,0.5,7.6,1.4c2.3,1,4.2,2.3,5.9,4.1c1.6,1.8,2.9,3.9,3.8,6.2c0.9,2.4,1.4,5,1.4,7.9c0,2.9-0.5,5.5-1.4,7.9
			c-0.9,2.4-2.2,4.5-3.8,6.2c-1.6,1.8-3.6,3.1-5.8,4.1c-2.3,1-4.8,1.4-7.5,1.4c-2.6,0-5-0.5-7.3-1.4c-2.3-0.9-4.2-2.2-5.8-3.8
			c-1.6-1.6-2.9-3.6-3.8-5.9c-1-2.2-1.5-4.7-1.7-7.4h13.1v-7.3h-20.4c-0.3,1.5-0.5,3.5-0.5,6.1c0,7.8,2.4,14.3,7.3,19.4
			c4.8,5,11.1,7.5,19.1,7.5c8,0,14.3-2.5,19.1-7.5c4.9-5.1,7.3-11.6,7.3-19.4C177.2,1013.5,174.7,1007.1,169.9,1002z"/>
		<path class="st0" d="M219.5,1001.7c-4.8-4.8-11.8-7.2-21.1-7.2h-2.1c-0.7,0-1.5,0-2.3,0.1v7.1c0.6-0.1,1.2-0.1,1.7-0.1h1.8
			c13.9,0,20.9,6.4,20.9,19.1c0,6.2-1.9,11.1-5.8,14.6c-3.9,3.5-8.9,5.2-15.3,5l-10.7-37.4l-7.7,2.3l12,41.9c1,0.1,1.9,0.1,2.9,0.2
			c1,0,1.9,0.1,2.9,0.1c9.2,0,16.4-2.3,21.6-7c5.2-4.7,7.9-11.2,7.9-19.6C226.3,1012.6,224,1006.2,219.5,1001.7z"/>
		<path class="st0" d="M276.3,1047.3v-35.1c0-5.1-2.2-9.4-6.6-12.7c-4.2-3.4-9.4-5.1-15.5-5.1c-5.9,0-11,1.6-15.3,4.9
			c-4.5,3.5-6.8,7.8-6.8,12.9v35.1h7.8v-22.7h16.4v-7.3h-16.4v-5.1c0-3.3,1.5-5.9,4.4-7.8c2.8-1.8,6.1-2.7,9.9-2.7
			c3.9,0,7.3,1,10.1,2.9c2.8,1.9,4.2,4.5,4.2,7.7v35.1H276.3z"/>
		<path class="st0" d="M278.9,984.2v-5.2h-6.8c-5.9,0-8.8,2.5-8.8,7.5v2.3h7.8v-1.4c0-2.2,1.3-3.2,4-3.2H278.9z"/>
		<path class="st0" d="M328.3,1047.3V1012c0-5.5-2.2-9.9-6.6-13.1c-4-2.9-9.1-4.4-15.5-4.4c-9.5,0-16.9,3.8-22.1,11.3v41.6h7.8
			v-39.6c3.2-4,8-6,14.3-6c4.2,0,7.6,1,10.3,2.9c2.7,2,4,4.7,4,8.4v34.3H328.3z"/>
		<path class="st0" d="M365.1,1047.3v-34.2c0-5.5-1.6-9.9-4.8-13.1c-3.5-3.7-8.5-5.6-15.2-5.6c-4.9,0-8.9,0.9-12.2,2.7v8.2
			c3.7-2.4,7.7-3.6,11.8-3.6c4.2,0,7.3,1.2,9.4,3.6c2.1,2.4,3.2,5.7,3.2,9.9v32.1H365.1z"/>
		<path class="st0" d="M395.1,1016.1c-10-0.6-14.9-2.8-14.9-6.5c0-1,0.3-2,1-2.9c0.7-0.9,1.6-1.7,2.8-2.4c1.2-0.7,2.5-1.3,4.1-1.7
			c1.5-0.4,3.2-0.7,4.8-0.7c7.5,0,12.2,2.6,14,7.7h8.2c-0.8-4.7-3.2-8.3-7.3-11c-4.1-2.6-9.1-4-14.9-4c-5.5,0-10.4,1.6-14.6,4.7
			c-4.2,2.9-6.2,6.7-6.2,11.2c0,4.4,2.3,7.7,6.8,9.7c3.3,1.5,8.2,2.5,14.7,3.1c9.5,1,14.3,3.6,14.3,8.1c0,1.5-0.4,2.8-1.2,4
			c-0.8,1.2-1.8,2.2-3.1,3.1c-1.3,0.9-2.8,1.5-4.6,2c-1.7,0.4-3.5,0.6-5.5,0.6c-4.2,0-7.5-0.9-10.1-2.7c-3.1-2.3-4.7-5.4-4.7-9.4
			H371c0,6.2,2.3,11,6.9,14.6c4,3.2,9.1,4.8,15.5,4.8c6.2,0,11.4-1.5,15.6-4.6c4.5-3.2,6.8-7.5,6.8-13
			C415.7,1022,408.8,1017.1,395.1,1016.1z"/>
		<path class="st0" d="M466.1,1030.2v-34.8h-7.8v33.9c0,3.6-1.2,6.5-3.4,8.6c-2.3,2.1-5.4,3.1-9.3,3.1c-3.7,0-7.3-1.1-10.8-3.4
			c-3.4-2.3-5.1-5-5.1-8.2v-34.1h-7.8v52h7.8v-5.3c4.6,4.2,10,6.2,16.1,6.2c6,0,10.9-1.6,14.6-4.9
			C464.2,1040,466.1,1035.6,466.1,1030.2z"/>
		<path class="st0" d="M519.4,1047.3V1020c0-3.7-1.3-6.9-3.8-9.6c-2.6-2.7-6-4.4-10.2-5.2l11.8-8.2l-8.8-2.3l-26.6,17.9v-17.3h-7.8
			v52h7.8v-26.1l16.1-11.2c3.8,0,7.1,1.1,9.7,3.2c2.7,2.1,4,4.8,4,8.1v26H519.4z"/>
		<path class="st0" d="M555.5,1047.3v-34.2c0-5.5-1.6-9.9-4.8-13.1c-3.5-3.7-8.5-5.6-15.2-5.6c-4.9,0-8.9,0.9-12.2,2.7v8.2
			c3.7-2.4,7.7-3.6,11.8-3.6s7.3,1.2,9.4,3.6c2.1,2.4,3.2,5.7,3.2,9.9v32.1H555.5z"/>
		<path class="st0" d="M591.7,1006.8l9.5-8.6l-6.4-3.5l-17.2,14.7c13.3,2.2,20,8,20,17.4c0,4.2-1.5,7.5-4.6,10.1
			c-3.1,2.6-7.2,4-12.4,4.2c-1.6,0.1-3.3,0-4.8-0.3c-1.6-0.3-3.1-0.6-4.7-1v-44.5h-7.8v49.8c5.5,2.1,11.2,3.1,17.2,3
			c7.8-0.1,14-2.2,18.6-6.2c4.2-3.7,6.4-8.8,6.4-15.1C605.4,1017.4,600.8,1010.8,591.7,1006.8z"/>
		<path class="st0" d="M655.5,1047.3v-52h-7.8v34.1c0,3.2-1.7,5.9-5.1,8.2c-3.5,2.3-7.1,3.4-10.8,3.4c-3.9,0-7-1-9.3-3.1
			c-2.3-2.1-3.4-4.9-3.4-8.6v-33.9h-7.8v34.8c0,5.5,1.9,9.8,5.7,13.1c3.8,3.3,8.6,4.9,14.6,4.9c6.2,0,11.6-2.1,16.1-6.2v5.3H655.5z"
			/>
		<path class="st0" d="M668.5,977.4h-8.3c3.5,5.8,5.8,9.8,6.6,12.1c4.4,9.4,6.6,19,6.6,28.7c0,7.4-1.1,14.3-3.2,20.8
			c-1.8,5.8-5.1,12.9-9.7,21.3h7.9c4.2-5.8,7.5-12.7,10-20.7c2.3-7.5,3.5-14.8,3.5-21.7C681.9,1004.9,677.4,991.3,668.5,977.4z"/>
	</g>
	<g>
		<path class="st1" d="M121.7,977.4h-8.2c-9,14-13.5,27.5-13.5,40.6c0,14.8,4.5,28.9,13.4,42.4h8.1c-4.9-8.7-8.1-15.7-9.7-21.2
			c-2.1-6.4-3.1-13.4-3.1-20.9c0-9.6,1.9-18.5,5.6-26.5c1.5-3.2,2.8-6,4.1-8.4C119.5,980.9,120.6,978.9,121.7,977.4z"/>
		<path class="st1" d="M169.9,1002c-4.8-5-11.1-7.5-19.1-7.5c-11.7,0-20,5.7-24.8,17.2h8.5c3.6-6.6,9.1-9.9,16.4-9.9
			c2.8,0,5.3,0.5,7.6,1.4c2.3,1,4.2,2.3,5.9,4.1c1.6,1.8,2.9,3.9,3.8,6.2c0.9,2.4,1.4,5,1.4,7.9c0,2.9-0.5,5.5-1.4,7.9
			c-0.9,2.4-2.2,4.5-3.8,6.2c-1.6,1.8-3.6,3.1-5.8,4.1c-2.3,1-4.8,1.4-7.5,1.4c-2.6,0-5-0.5-7.3-1.4c-2.3-0.9-4.2-2.2-5.8-3.8
			c-1.6-1.6-2.9-3.6-3.8-5.9c-1-2.2-1.5-4.7-1.7-7.4h13.1v-7.3h-20.4c-0.3,1.5-0.5,3.5-0.5,6.1c0,7.8,2.4,14.3,7.3,19.4
			c4.8,5,11.1,7.5,19.1,7.5c8,0,14.3-2.5,19.1-7.5c4.9-5.1,7.3-11.6,7.3-19.4C177.2,1013.5,174.7,1007.1,169.9,1002z"/>
		<path class="st1" d="M219.5,1001.7c-4.8-4.8-11.8-7.2-21.1-7.2h-2.1c-0.7,0-1.5,0-2.3,0.1v7.1c0.6-0.1,1.2-0.1,1.7-0.1h1.8
			c13.9,0,20.9,6.4,20.9,19.1c0,6.2-1.9,11.1-5.8,14.6c-3.9,3.5-8.9,5.2-15.3,5l-10.7-37.4l-7.7,2.3l12,41.9c1,0.1,1.9,0.1,2.9,0.2
			c1,0,1.9,0.1,2.9,0.1c9.2,0,16.4-2.3,21.6-7c5.2-4.7,7.9-11.2,7.9-19.6C226.3,1012.6,224,1006.2,219.5,1001.7z"/>
		<path class="st1" d="M276.3,1047.3v-35.1c0-5.1-2.2-9.4-6.6-12.7c-4.2-3.4-9.4-5.1-15.5-5.1c-5.9,0-11,1.6-15.3,4.9
			c-4.5,3.5-6.8,7.8-6.8,12.9v35.1h7.8v-22.7h16.4v-7.3h-16.4v-5.1c0-3.3,1.5-5.9,4.4-7.8c2.8-1.8,6.1-2.7,9.9-2.7
			c3.9,0,7.3,1,10.1,2.9c2.8,1.9,4.2,4.5,4.2,7.7v35.1H276.3z"/>
		<path class="st1" d="M278.9,984.2v-5.2h-6.8c-5.9,0-8.8,2.5-8.8,7.5v2.3h7.8v-1.4c0-2.2,1.3-3.2,4-3.2H278.9z"/>
		<path class="st1" d="M328.3,1047.3V1012c0-5.5-2.2-9.9-6.6-13.1c-4-2.9-9.1-4.4-15.5-4.4c-9.5,0-16.9,3.8-22.1,11.3v41.6h7.8
			v-39.6c3.2-4,8-6,14.3-6c4.2,0,7.6,1,10.3,2.9c2.7,2,4,4.7,4,8.4v34.3H328.3z"/>
		<path class="st1" d="M365.1,1047.3v-34.2c0-5.5-1.6-9.9-4.8-13.1c-3.5-3.7-8.5-5.6-15.2-5.6c-4.9,0-8.9,0.9-12.2,2.7v8.2
			c3.7-2.4,7.7-3.6,11.8-3.6c4.2,0,7.3,1.2,9.4,3.6c2.1,2.4,3.2,5.7,3.2,9.9v32.1H365.1z"/>
		<path class="st1" d="M395.1,1016.1c-10-0.6-14.9-2.8-14.9-6.5c0-1,0.3-2,1-2.9c0.7-0.9,1.6-1.7,2.8-2.4c1.2-0.7,2.5-1.3,4.1-1.7
			c1.5-0.4,3.2-0.7,4.8-0.7c7.5,0,12.2,2.6,14,7.7h8.2c-0.8-4.7-3.2-8.3-7.3-11c-4.1-2.6-9.1-4-14.9-4c-5.5,0-10.4,1.6-14.6,4.7
			c-4.2,2.9-6.2,6.7-6.2,11.2c0,4.4,2.3,7.7,6.8,9.7c3.3,1.5,8.2,2.5,14.7,3.1c9.5,1,14.3,3.6,14.3,8.1c0,1.5-0.4,2.8-1.2,4
			c-0.8,1.2-1.8,2.2-3.1,3.1c-1.3,0.9-2.8,1.5-4.6,2c-1.7,0.4-3.5,0.6-5.5,0.6c-4.2,0-7.5-0.9-10.1-2.7c-3.1-2.3-4.7-5.4-4.7-9.4
			H371c0,6.2,2.3,11,6.9,14.6c4,3.2,9.1,4.8,15.5,4.8c6.2,0,11.4-1.5,15.6-4.6c4.5-3.2,6.8-7.5,6.8-13
			C415.7,1022,408.8,1017.1,395.1,1016.1z"/>
		<path class="st1" d="M466.1,1030.2v-34.8h-7.8v33.9c0,3.6-1.2,6.5-3.4,8.6c-2.3,2.1-5.4,3.1-9.3,3.1c-3.7,0-7.3-1.1-10.8-3.4
			c-3.4-2.3-5.1-5-5.1-8.2v-34.1h-7.8v52h7.8v-5.3c4.6,4.2,10,6.2,16.1,6.2c6,0,10.9-1.6,14.6-4.9
			C464.2,1040,466.1,1035.6,466.1,1030.2z"/>
		<path class="st1" d="M519.4,1047.3V1020c0-3.7-1.3-6.9-3.8-9.6c-2.6-2.7-6-4.4-10.2-5.2l11.8-8.2l-8.8-2.3l-26.6,17.9v-17.3h-7.8
			v52h7.8v-26.1l16.1-11.2c3.8,0,7.1,1.1,9.7,3.2c2.7,2.1,4,4.8,4,8.1v26H519.4z"/>
		<path class="st1" d="M555.5,1047.3v-34.2c0-5.5-1.6-9.9-4.8-13.1c-3.5-3.7-8.5-5.6-15.2-5.6c-4.9,0-8.9,0.9-12.2,2.7v8.2
			c3.7-2.4,7.7-3.6,11.8-3.6s7.3,1.2,9.4,3.6c2.1,2.4,3.2,5.7,3.2,9.9v32.1H555.5z"/>
		<path class="st1" d="M591.7,1006.8l9.5-8.6l-6.4-3.5l-17.2,14.7c13.3,2.2,20,8,20,17.4c0,4.2-1.5,7.5-4.6,10.1
			c-3.1,2.6-7.2,4-12.4,4.2c-1.6,0.1-3.3,0-4.8-0.3c-1.6-0.3-3.1-0.6-4.7-1v-44.5h-7.8v49.8c5.5,2.1,11.2,3.1,17.2,3
			c7.8-0.1,14-2.2,18.6-6.2c4.2-3.7,6.4-8.8,6.4-15.1C605.4,1017.4,600.8,1010.8,591.7,1006.8z"/>
		<path class="st1" d="M655.5,1047.3v-52h-7.8v34.1c0,3.2-1.7,5.9-5.1,8.2c-3.5,2.3-7.1,3.4-10.8,3.4c-3.9,0-7-1-9.3-3.1
			c-2.3-2.1-3.4-4.9-3.4-8.6v-33.9h-7.8v34.8c0,5.5,1.9,9.8,5.7,13.1c3.8,3.3,8.6,4.9,14.6,4.9c6.2,0,11.6-2.1,16.1-6.2v5.3H655.5z"
			/>
		<path class="st1" d="M668.5,977.4h-8.3c3.5,5.8,5.8,9.8,6.6,12.1c4.4,9.4,6.6,19,6.6,28.7c0,7.4-1.1,14.3-3.2,20.8
			c-1.8,5.8-5.1,12.9-9.7,21.3h7.9c4.2-5.8,7.5-12.7,10-20.7c2.3-7.5,3.5-14.8,3.5-21.7C681.9,1004.9,677.4,991.3,668.5,977.4z"/>
	</g>
	<g>
		<path class="st2" d="M510.9,606.6c-150.6,0-272.7-122.1-272.7-272.7c0-150.6,122.1-272.7,272.7-272.7c23.6,0,46.5,3,68.4,8.6
			c-51.9-27.5-111-43-173.8-43c-205.6,0-372.3,166.7-372.3,372.3c0,205.6,166.7,372.3,372.3,372.3c205.6,0,372.3-166.7,372.3-372.3
			c0-2.8,0-5.7-0.1-8.5C751.5,514,642.1,606.6,510.9,606.6"/>
		<path class="st3" d="M510.9,606.6c-150.6,0-272.7-122.1-272.7-272.7c0-150.6,122.1-272.7,272.7-272.7c23.6,0,46.5,3,68.4,8.6
			c-51.9-27.5-111-43-173.8-43c-205.6,0-372.3,166.7-372.3,372.3c0,205.6,166.7,372.3,372.3,372.3c205.6,0,372.3-166.7,372.3-372.3
			c0-2.8,0-5.7-0.1-8.5C751.5,514,642.1,606.6,510.9,606.6z"/>
		<path class="st4" d="M533.9,53.5c-5.9,0.9-11.5-1.6-17.2-1.9c-6.9-0.4-13.7-2-20.6-2.4c-13-0.8-26.1-1.7-39.1-0.9
			c-27.3,1.5-54.4,4.9-81,12c-19.3,5.2-38,11.8-56.3,19.9c-26.8,11.8-51.6,26.9-74.9,44.5c-17.8,13.5-33.8,29-48.8,45.3
			c-16.7,18.1-31.1,38.1-43.7,59.3C140,249.8,130,271.5,122,294.1c-7.3,20.7-12.8,41.9-16.3,63.5c-2.1,12.9-3.4,25.9-4.1,39
			c-0.5,9.1-0.7,18.2-0.6,27.3c0.3,22.9,2.9,45.7,7.5,68.2c7.1,34.6,19,67.5,35.6,98.6c10.8,20.1,23.3,39.1,37.6,57
			c9.5,11.8,19.3,23.3,30.2,33.6c15.7,14.9,32.1,29,50.3,41c8.5,5.6,16.9,11.3,26,16.1c2.1,1.1,2.5,2.2,1.9,4.6
			c-2,7.4-1.8,7.4-9.1,4.9c-33.1-11.6-64-27.3-92.6-47.6c-13.8-9.8-26.8-20.8-39.4-32.2c-10.6-9.6-20.1-20.1-29.3-30.8
			c-13.4-15.4-25-32.1-35.4-49.6c-13.2-22.2-24.2-45.5-32.5-69.9c-6-17.7-10.5-35.9-13.9-54.4c-5.3-28.7-6.1-57.7-5.2-86.7
			c0.5-14.2,2.5-28.4,4.9-42.5c3.4-20,8.3-39.6,15-58.7c8.3-23.4,18.5-45.9,31.4-67.2c7.9-12.9,16.3-25.5,25.4-37.6
			c4.8-6.4,10.1-12.6,15.5-18.6c6.3-7,12.7-13.7,19.4-20.3c14.6-14.4,30.5-27.2,47.2-38.9c16.9-11.8,34.7-22,53.4-30.7
			c26.5-12.4,54-21.6,82.7-27.1c15.9-3.1,32-5.2,48.2-6.5c15-1.2,30.1-1.5,45-0.4c28.2,2,56.3,5.5,83.5,14.2c9.4,3,18.8,6,28.2,9.3
			C533.2,52,533.9,52.3,533.9,53.5"/>
		<path class="st3" d="M533.9,53.5c-5.9,0.9-11.5-1.6-17.2-1.9c-6.9-0.4-13.7-2-20.6-2.4c-13-0.8-26.1-1.7-39.1-0.9
			c-27.3,1.5-54.4,4.9-81,12c-19.3,5.2-38,11.8-56.3,19.9c-26.8,11.8-51.6,26.9-74.9,44.5c-17.8,13.5-33.8,29-48.8,45.3
			c-16.7,18.1-31.1,38.1-43.7,59.3C140,249.8,130,271.5,122,294.1c-7.3,20.7-12.8,41.9-16.3,63.5c-2.1,12.9-3.4,25.9-4.1,39
			c-0.5,9.1-0.7,18.2-0.6,27.3c0.3,22.9,2.9,45.7,7.5,68.2c7.1,34.6,19,67.5,35.6,98.6c10.8,20.1,23.3,39.1,37.6,57
			c9.5,11.8,19.3,23.3,30.2,33.6c15.7,14.9,32.1,29,50.3,41c8.5,5.6,16.9,11.3,26,16.1c2.1,1.1,2.5,2.2,1.9,4.6
			c-2,7.4-1.8,7.4-9.1,4.9c-33.1-11.6-64-27.3-92.6-47.6c-13.8-9.8-26.8-20.8-39.4-32.2c-10.6-9.6-20.1-20.1-29.3-30.8
			c-13.4-15.4-25-32.1-35.4-49.6c-13.2-22.2-24.2-45.5-32.5-69.9c-6-17.7-10.5-35.9-13.9-54.4c-5.3-28.7-6.1-57.7-5.2-86.7
			c0.5-14.2,2.5-28.4,4.9-42.5c3.4-20,8.3-39.6,15-58.7c8.3-23.4,18.5-45.9,31.4-67.2c7.9-12.9,16.3-25.5,25.4-37.6
			c4.8-6.4,10.1-12.6,15.5-18.6c6.3-7,12.7-13.7,19.4-20.3c14.6-14.4,30.5-27.2,47.2-38.9c16.9-11.8,34.7-22,53.4-30.7
			c26.5-12.4,54-21.6,82.7-27.1c15.9-3.1,32-5.2,48.2-6.5c15-1.2,30.1-1.5,45-0.4c28.2,2,56.3,5.5,83.5,14.2c9.4,3,18.8,6,28.2,9.3
			C533.2,52,533.9,52.3,533.9,53.5z"/>
		<path class="st1" d="M344.6,100.6c-5.4,3.4-10.3,6.1-14.7,9.3c-12.3,8.8-24.3,17.9-35.6,28c-20.4,18.1-37.7,38.8-52.8,61.4
			c-17,25.5-29.8,53.1-38.7,82.4c-5,16.5-8.2,33.3-10.8,50.3c-3,20.4-3.5,40.8-2.3,61.1c1.9,33.9,9.5,66.8,22.1,98.5
			c10.7,26.7,24.8,51.5,42,74.5c11.3,15.1,24.1,29.1,38.1,41.8c13.4,12.2,27.6,23.4,43,33c2.4,1.5,3,2.4,0.9,5
			c-9.4,11.5-16.7,24.4-22.9,37.8c-1.7,3.7-3.1,4.2-6.6,2.2c-19.1-11.2-37.6-23.4-54.3-38.2c-6.8-6-13.8-11.7-20-18.3
			c-12.5-13.3-24.3-27-34.7-42c-18.4-26.6-32.7-55.2-42.6-86c-5.7-17.8-9.8-36.1-12.5-54.5c-1.2-7.9-1.5-15.9-2.2-23.8
			c-0.9-10-0.6-20-0.6-30c0.1-19.6,2.6-38.9,6.6-58.1c4.2-20.4,10.1-40.3,18.3-59.4c7.2-16.6,15.3-32.7,25.2-48
			c10.5-16.2,22.3-31.5,35.3-45.8c16.4-18,34.8-33.5,54.7-47.5c19.7-13.8,40.9-24.6,62.9-34.1C342.6,100.2,343.1,100.4,344.6,100.6"
			/>
		<path class="st3" d="M344.6,100.6c-5.4,3.4-10.3,6.1-14.7,9.3c-12.3,8.8-24.3,17.9-35.6,28c-20.4,18.1-37.7,38.8-52.8,61.4
			c-17,25.5-29.8,53.1-38.7,82.4c-5,16.5-8.2,33.3-10.8,50.3c-3,20.4-3.5,40.8-2.3,61.1c1.9,33.9,9.5,66.8,22.1,98.5
			c10.7,26.7,24.8,51.5,42,74.5c11.3,15.1,24.1,29.1,38.1,41.8c13.4,12.2,27.6,23.4,43,33c2.4,1.5,3,2.4,0.9,5
			c-9.4,11.5-16.7,24.4-22.9,37.8c-1.7,3.7-3.1,4.2-6.6,2.2c-19.1-11.2-37.6-23.4-54.3-38.2c-6.8-6-13.8-11.7-20-18.3
			c-12.5-13.3-24.3-27-34.7-42c-18.4-26.6-32.7-55.2-42.6-86c-5.7-17.8-9.8-36.1-12.5-54.5c-1.2-7.9-1.5-15.9-2.2-23.8
			c-0.9-10-0.6-20-0.6-30c0.1-19.6,2.6-38.9,6.6-58.1c4.2-20.4,10.1-40.3,18.3-59.4c7.2-16.6,15.3-32.7,25.2-48
			c10.5-16.2,22.3-31.5,35.3-45.8c16.4-18,34.8-33.5,54.7-47.5c19.7-13.8,40.9-24.6,62.9-34.1C342.6,100.2,343.1,100.4,344.6,100.6z
			"/>
		<path class="st5" d="M680.9,251.8c-8.1-14.4-23.8-20.5-41-15.8c-7.2,2-14.2,4.6-21,7.9c3.1-15.9,4.7-32.4,3-49.5
			c-0.7-7.6-2.4-18.9-8.7-29.6c-10.3-17.5-31.2-23.8-50.8-15.4c-12.5,5.4-20.7,14.9-27.3,22.5l-1.2,1.4c-8.4,9.7-15,20.4-20.6,31.6
			c-4-14.7-8.8-28.1-14.6-40.7c-5-11-11.1-22.4-21.5-31.1l-0.3-0.3c-3.7-3.1-9.2-7.8-17.6-8.8c-17.3-2.1-30.7,5.7-38,22
			c-5.7,12.9-6.4,25.9-6.6,37l0,1.3c-0.2,13.4-0.5,27.2,1.9,41.4c0.6,3.7,1.1,7.6,1.6,11.7c0.6,5.3,1.3,10.8,2.4,16.3
			c2.8,14.6,6.4,29.4,10.9,45.3c7.2,25.5,17,50.4,29.3,74c3.3,6.4,7.5,12,11.1,16.6c4.5,5.8,9.7,9.5,14.4,12.9c3,2.2,5.6,4,7.4,6
			c3.9,4.3,9.3,6.6,15.4,6.6c1.8,0,3.6-0.2,5.5-0.6c5-1.1,9-4.4,11-8.8c1.6-0.6,3-1.3,4.3-1.9c1.4-0.7,2.9-1.4,3.7-1.5
			c17.8-3.5,33.6-11.6,45.3-18.2c15.3-8.6,30.2-18.8,44.5-30.5c14-11.4,25.8-22.9,36.2-35.2c7.9-9.4,16-19.9,21.5-32.9
			C683.1,280.7,689.1,266.4,680.9,251.8"/>
		<path class="st4" d="M769,430.4c-27.4,133.4-185,258.4-366.5,195c8.2-6.3,17.2-11.6,23.9-19.1c8.4-9.2,16.8-4.7,25.5-3
			c13,2.5,26,4.5,39.3,5.3c7.7,0.5,15.4,0.9,23.2,0.7c25.5-0.8,50.6-4.5,75-12c29.6-9.1,57.1-22.7,82.1-40.9
			c9.7-7.1,19-14.8,27.8-23c18.1-16.9,33.5-36,46.6-57c8.7-13.9,15.9-28.5,21.9-43.7C768.2,431.9,768.6,431.1,769,430.4"/>
		<path class="st3" d="M769,430.4c-27.4,133.4-185,258.4-366.5,195c8.2-6.3,17.2-11.6,23.9-19.1c8.4-9.2,16.8-4.7,25.5-3
			c13,2.5,26,4.5,39.3,5.3c7.7,0.5,15.4,0.9,23.2,0.7c25.5-0.8,50.6-4.5,75-12c29.6-9.1,57.1-22.7,82.1-40.9
			c9.7-7.1,19-14.8,27.8-23c18.1-16.9,33.5-36,46.6-57c8.7-13.9,15.9-28.5,21.9-43.7C768.2,431.9,768.6,431.1,769,430.4z"/>
		<path class="st1" d="M682.6,639c-8.5,8.9-18.4,16.4-28.2,23.7c-15.9,12-32.9,22.3-50.9,30.9c-25.1,12.1-51.3,21.1-78.8,26.1
			c-15.4,2.8-30.8,4.7-46.4,5.6c-7.4,0.4-14.8,0.9-22.1,0.6c-17-0.7-33.8-2.2-50.6-5.1c-16.2-2.8-32-7-47.6-12.2
			c-7.4-2.4-14.5-5.4-21.7-8.2c-1.9-0.7-2.2-1.6-0.8-3.3c9.6-11.3,17.7-23.8,26.6-35.6c2-2.6,3.4-3,6.6-1.5
			c25,12.1,51,20.9,78.4,25.8c11.8,2.1,23.7,3.7,35.6,4.7c13.8,1.2,27.6,1.1,41.4,0.5c17.6-0.8,35.1-3.5,52.3-7.5
			c26.9-6.3,52.7-15.7,77.1-28.7c9.1-4.8,18-9.8,26.5-15.7c0.7-0.5,1.2-0.8,2-0.8C682.2,638.6,682.4,638.8,682.6,639"/>
		<path class="st3" d="M682.6,639c-8.5,8.9-18.4,16.4-28.2,23.7c-15.9,12-32.9,22.3-50.9,30.9c-25.1,12.1-51.3,21.1-78.8,26.1
			c-15.4,2.8-30.8,4.7-46.4,5.6c-7.4,0.4-14.8,0.9-22.1,0.6c-17-0.7-33.8-2.2-50.6-5.1c-16.2-2.8-32-7-47.6-12.2
			c-7.4-2.4-14.5-5.4-21.7-8.2c-1.9-0.7-2.2-1.6-0.8-3.3c9.6-11.3,17.7-23.8,26.6-35.6c2-2.6,3.4-3,6.6-1.5
			c25,12.1,51,20.9,78.4,25.8c11.8,2.1,23.7,3.7,35.6,4.7c13.8,1.2,27.6,1.1,41.4,0.5c17.6-0.8,35.1-3.5,52.3-7.5
			c26.9-6.3,52.7-15.7,77.1-28.7c9.1-4.8,18-9.8,26.5-15.7c0.7-0.5,1.2-0.8,2-0.8C682.2,638.6,682.4,638.8,682.6,639z"/>
		<path class="st4" d="M238,261c-1.5,7.4-3.1,14.9-4.3,22.3c-1.6,9-3,18.1-3.2,27.3c-0.1,6.7-1.3,13.2-1,19.9
			c1,27,4.4,53.6,12.2,79.6c10.3,34.2,26.7,65.2,48.6,93.1c13.5,17.2,29.3,32.4,46.5,46.1c15,12,31.3,21.6,48,30.7
			c3.3,1.8,6.8,3.1,10.2,4.6c1.6,0.7,2.6,1.6,0.6,3c-9,6.3-16.9,13.9-25.3,20.9c-1.9,1.6-3,1.2-4.7,0.2c-16.5-9.3-32.3-19.6-46.8-32
			c-8.1-7-16.3-13.9-23.5-21.8c-14.9-16.5-28.5-33.9-39.5-53.4c-10.4-18.4-18.8-37.5-25-57.6c-4.6-14.9-7.8-30.1-9.8-45.6
			c-2-15.5-3.3-31-2.5-46.6c1.5-30.5,6.4-60.5,18.1-89c0.3-0.6,0.2-1.4,0.4-2C237.4,260.9,237.7,261,238,261"/>
		<path class="st3" d="M238,261c-1.5,7.4-3.1,14.9-4.3,22.3c-1.6,9-3,18.1-3.2,27.3c-0.1,6.7-1.3,13.2-1,19.9
			c1,27,4.4,53.6,12.2,79.6c10.3,34.2,26.7,65.2,48.6,93.1c13.5,17.2,29.3,32.4,46.5,46.1c15,12,31.3,21.6,48,30.7
			c3.3,1.8,6.8,3.1,10.2,4.6c1.6,0.7,2.6,1.6,0.6,3c-9,6.3-16.9,13.9-25.3,20.9c-1.9,1.6-3,1.2-4.7,0.2c-16.5-9.3-32.3-19.6-46.8-32
			c-8.1-7-16.3-13.9-23.5-21.8c-14.9-16.5-28.5-33.9-39.5-53.4c-10.4-18.4-18.8-37.5-25-57.6c-4.6-14.9-7.8-30.1-9.8-45.6
			c-2-15.5-3.3-31-2.5-46.6c1.5-30.5,6.4-60.5,18.1-89c0.3-0.6,0.2-1.4,0.4-2C237.4,260.9,237.7,261,238,261z"/>
		<path class="st1" d="M296.9,743.3c3.9-13.2,8.8-26.1,14.4-38.6c6.9-15.7,13.6-31.5,23.6-45.6c7-9.8,14.4-19.3,22.4-28.2
			c16.5-18.3,36-33.1,55.7-47.8c14.5-10.8,27.6-23.5,39.5-37.2c12.1-13.9,22.9-28.7,30.8-45.4c7.5-15.7,12.7-32.2,16.3-49.2
			c2.7-12.6,4.6-25.4,4.6-38.4c0-1.6,0.9-2.8,1.3-4.6c6.5,31.9,2.2,62.6-8.1,93.6c6.9-4.1,13.2-7.8,19.4-11.4
			c14.7-8.6,30.3-14.5,47.4-16.2c5.1-0.5,10.1-1,15.3-0.1c12.3,2.1,13.6,15.2,9,22.8c-5.5,9.1-13.6,15.5-22.3,21.3
			c-16.7,11.2-35,19.1-54.7,23.1c-7.3,1.5-14.9,2.6-22.2-0.7c-2-0.9-4.9-1.4-5-5.1c5.3,5,10.6,1.6,15.4,0.3
			c18.5-5.2,34.5-15.1,49.9-26.2c7.6-5.5,14.9-11.2,21.5-19.1c-8,0.7-15.1,1.9-22.1,3.6c-18.2,4.6-36,10.5-52.8,19
			c-3.1,1.6-5.1,3.6-6.6,6.9c-8.1,17.1-18.5,32.6-31.6,46.3c-20.2,21.1-43.3,38.8-66.7,56.1c-17.4,12.9-32.6,28-45.8,45.1
			c-15.5,20-28.5,41.6-40.7,63.7c-2,3.6-3.9,7.1-5.9,10.6c-0.5,0.8-0.5,2.3-2.1,1.3L296.9,743.3z"/>
		<path class="st3" d="M296.9,743.3c3.9-13.2,8.8-26.1,14.4-38.6c6.9-15.7,13.6-31.5,23.6-45.6c7-9.8,14.4-19.3,22.4-28.2
			c16.5-18.3,36-33.1,55.7-47.8c14.5-10.8,27.6-23.5,39.5-37.2c12.1-13.9,22.9-28.7,30.8-45.4c7.5-15.7,12.7-32.2,16.3-49.2
			c2.7-12.6,4.6-25.4,4.6-38.4c0-1.6,0.9-2.8,1.3-4.6c6.5,31.9,2.2,62.6-8.1,93.6c6.9-4.1,13.2-7.8,19.4-11.4
			c14.7-8.6,30.3-14.5,47.4-16.2c5.1-0.5,10.1-1,15.3-0.1c12.3,2.1,13.6,15.2,9,22.8c-5.5,9.1-13.6,15.5-22.3,21.3
			c-16.7,11.2-35,19.1-54.7,23.1c-7.3,1.5-14.9,2.6-22.2-0.7c-2-0.9-4.9-1.4-5-5.1c5.3,5,10.6,1.6,15.4,0.3
			c18.5-5.2,34.5-15.1,49.9-26.2c7.6-5.5,14.9-11.2,21.5-19.1c-8,0.7-15.1,1.9-22.1,3.6c-18.2,4.6-36,10.5-52.8,19
			c-3.1,1.6-5.1,3.6-6.6,6.9c-8.1,17.1-18.5,32.6-31.6,46.3c-20.2,21.1-43.3,38.8-66.7,56.1c-17.4,12.9-32.6,28-45.8,45.1
			c-15.5,20-28.5,41.6-40.7,63.7c-2,3.6-3.9,7.1-5.9,10.6c-0.5,0.8-0.5,2.3-2.1,1.3L296.9,743.3z"/>
		<path class="st1" d="M466.7,525.1c-7.1,3.4-14.2,2-20.9-0.9c-10.8-4.7-20.1-11.9-29-19.5c-12.8-11-24.1-23.6-33.4-37.8
			c-8.8-13.3-16.9-27-20.1-43c-1.6-8.1-2.2-16,2.7-23.4c4.8-7.4,13.5-8.6,21.7-6.7c8.5,2,15.7,6.8,22.2,12.4
			c17.4,15.2,30.7,33.6,41.1,54.1c6.5,12.8,11.1,26.3,13.6,40.4c0.9,5.1,0.2,10.2-0.8,15.3c-0.2,1-0.9,1.6-1.9,1.6
			c-1.3,0-1.4-0.9-1.4-1.8c0.1-14.4-7.1-26.3-13.8-38.2c-9.3-16.6-20.6-31.9-34-45.4c-8.4-8.5-18-15.5-28.4-21.3
			c-3.1-1.7-3.9,0.3-4.2,2.4c-0.6,3.3,0.6,6.6,1.3,9.8c2.8,13.2,9.4,24.7,16.2,36c10.6,17.7,23.1,34.1,38.1,48.5
			c6.3,6.1,13.6,10.9,20.7,15.8C459.4,525.6,463.3,524.2,466.7,525.1"/>
		<path class="st3" d="M466.7,525.1c-7.1,3.4-14.2,2-20.9-0.9c-10.8-4.7-20.1-11.9-29-19.5c-12.8-11-24.1-23.6-33.4-37.8
			c-8.8-13.3-16.9-27-20.1-43c-1.6-8.1-2.2-16,2.7-23.4c4.8-7.4,13.5-8.6,21.7-6.7c8.5,2,15.7,6.8,22.2,12.4
			c17.4,15.2,30.7,33.6,41.1,54.1c6.5,12.8,11.1,26.3,13.6,40.4c0.9,5.1,0.2,10.2-0.8,15.3c-0.2,1-0.9,1.6-1.9,1.6
			c-1.3,0-1.4-0.9-1.4-1.8c0.1-14.4-7.1-26.3-13.8-38.2c-9.3-16.6-20.6-31.9-34-45.4c-8.4-8.5-18-15.5-28.4-21.3
			c-3.1-1.7-3.9,0.3-4.2,2.4c-0.6,3.3,0.6,6.6,1.3,9.8c2.8,13.2,9.4,24.7,16.2,36c10.6,17.7,23.1,34.1,38.1,48.5
			c6.3,6.1,13.6,10.9,20.7,15.8C459.4,525.6,463.3,524.2,466.7,525.1z"/>
		<path class="st4" d="M303,747c2.4,1,4.6,1.8,6.8,2.8c6,2.7,11.9,5.5,18,8.2c1,0.4,2.3,0.7,2,2c-0.5,1.5-2,0.9-3.1,0.7
			c-8.2-2-16.4-4.2-24.6-6.2c-1.6-0.4-3.7-0.8-2.7-2.4C300.3,750.3,300.6,747.6,303,747"/>
		<path class="st3" d="M303,747c2.4,1,4.6,1.8,6.8,2.8c6,2.7,11.9,5.5,18,8.2c1,0.4,2.3,0.7,2,2c-0.5,1.5-2,0.9-3.1,0.7
			c-8.2-2-16.4-4.2-24.6-6.2c-1.6-0.4-3.7-0.8-2.7-2.4C300.3,750.3,300.6,747.6,303,747z"/>
		<path class="st1" d="M682,638.4c0.4-0.8,0.9-1,1.6-0.5c-0.3,0.4-0.7,0.7-1,1.1C682.4,638.8,682.2,638.6,682,638.4"/>
		<path class="st3" d="M682,638.4c0.4-0.8,0.9-1,1.6-0.5c-0.3,0.4-0.7,0.7-1,1.1C682.4,638.8,682.2,638.6,682,638.4z"/>
		<path class="st2" d="M510.9,606.6c-150.6,0-272.7-122.1-272.7-272.7c0-150.6,122.1-272.7,272.7-272.7c23.6,0,46.5,3,68.4,8.6
			c-51.9-27.5-111-43-173.8-43c-205.6,0-372.3,166.7-372.3,372.3c0,205.6,166.7,372.3,372.3,372.3c205.6,0,372.3-166.7,372.3-372.3
			c0-2.8,0-5.7-0.1-8.5C751.5,514,642.1,606.6,510.9,606.6"/>
		<path class="st4" d="M533.9,53.5c-5.9,0.9-11.5-1.6-17.2-1.9c-6.9-0.4-13.7-2-20.6-2.4c-13-0.8-26.1-1.7-39.1-0.9
			c-27.3,1.5-54.4,4.9-81,12c-19.3,5.2-38,11.8-56.3,19.9c-26.8,11.8-51.6,26.9-74.9,44.5c-17.8,13.5-33.8,29-48.8,45.3
			c-16.7,18.1-31.1,38.1-43.7,59.3C140,249.8,130,271.5,122,294.1c-7.3,20.7-12.8,41.9-16.3,63.5c-2.1,12.9-3.4,25.9-4.1,39
			c-0.5,9.1-0.7,18.2-0.6,27.3c0.3,22.9,2.9,45.7,7.5,68.2c7.1,34.6,19,67.5,35.6,98.6c10.8,20.1,23.3,39.1,37.6,57
			c9.5,11.8,19.3,23.3,30.2,33.6c15.7,14.9,32.1,29,50.3,41c8.5,5.6,16.9,11.3,26,16.1c2.1,1.1,2.5,2.2,1.9,4.6
			c-2,7.4-1.8,7.4-9.1,4.9c-33.1-11.6-64-27.3-92.6-47.6c-13.8-9.8-26.8-20.8-39.4-32.2c-10.6-9.6-20.1-20.1-29.3-30.8
			c-13.4-15.4-25-32.1-35.4-49.6c-13.2-22.2-24.2-45.5-32.5-69.9c-6-17.7-10.5-35.9-13.9-54.4c-5.3-28.7-6.1-57.7-5.2-86.7
			c0.5-14.2,2.5-28.4,4.9-42.5c3.4-20,8.3-39.6,15-58.7c8.3-23.4,18.5-45.9,31.4-67.2c7.9-12.9,16.3-25.5,25.4-37.6
			c4.8-6.4,10.1-12.6,15.5-18.6c6.3-7,12.7-13.7,19.4-20.3c14.6-14.4,30.5-27.2,47.2-38.9c16.9-11.8,34.7-22,53.4-30.7
			c26.5-12.4,54-21.6,82.7-27.1c15.9-3.1,32-5.2,48.2-6.5c15-1.2,30.1-1.5,45-0.4c28.2,2,56.3,5.5,83.5,14.2c9.4,3,18.8,6,28.2,9.3
			C533.2,52,533.9,52.3,533.9,53.5"/>
		<path class="st1" d="M344.6,100.6c-5.4,3.4-10.3,6.1-14.7,9.3c-12.3,8.8-24.3,17.9-35.6,28c-20.4,18.1-37.7,38.8-52.8,61.4
			c-17,25.5-29.8,53.1-38.7,82.4c-5,16.5-8.2,33.3-10.8,50.3c-3,20.4-3.5,40.8-2.3,61.1c1.9,33.9,9.5,66.8,22.1,98.5
			c10.7,26.7,24.8,51.5,42,74.5c11.3,15.1,24.1,29.1,38.1,41.8c13.4,12.2,27.6,23.4,43,33c2.4,1.5,3,2.4,0.9,5
			c-9.4,11.5-16.7,24.4-22.9,37.8c-1.7,3.7-3.1,4.2-6.6,2.2c-19.1-11.2-37.6-23.4-54.3-38.2c-6.8-6-13.8-11.7-20-18.3
			c-12.5-13.3-24.3-27-34.7-42c-18.4-26.6-32.7-55.2-42.6-86c-5.7-17.8-9.8-36.1-12.5-54.5c-1.2-7.9-1.5-15.9-2.2-23.8
			c-0.9-10-0.6-20-0.6-30c0.1-19.6,2.6-38.9,6.6-58.1c4.2-20.4,10.1-40.3,18.3-59.4c7.2-16.6,15.3-32.7,25.2-48
			c10.5-16.2,22.3-31.5,35.3-45.8c16.4-18,34.8-33.5,54.7-47.5c19.7-13.8,40.9-24.6,62.9-34.1C342.6,100.2,343.1,100.4,344.6,100.6"
			/>
		<path class="st1" d="M508.4,255.8c3-6,5-12.4,7.6-18.5c7.9-19.1,16.2-38,29.8-53.7c6.5-7.5,13.1-15.6,22.8-19.7
			c11.5-4.9,24.3-2.5,31,8.9c4.2,7.1,5.9,15,6.6,23.2c2.7,27.4-4,53.4-11.4,79.3c-0.3,0.9-0.5,1.7-0.1,2.8
			c6.2-4.2,12.3-8.5,18.4-12.6c9.5-6.4,19.8-11.1,30.8-14.1c10.1-2.7,18.5,0.1,23.1,8.3c3.6,6.5,2.2,13.4-0.6,19.9
			c-4.5,10.8-11.5,20-19,28.9c-10.3,12.2-21.8,23.1-34.1,33.2c-13.3,10.8-27.4,20.5-42.3,29c-12.9,7.2-26.1,13.6-40.6,16.4
			c-5.3,1-9.3,4.4-14.6,5.5c-4.1,0.8-4.1-1.1-4.3-3.5c-0.4-4.9,1.4-9.5,3.2-13.9c6.2-15.7,15.7-29.7,25.8-43.1
			c8.6-11.4,18.4-21.7,28.7-31.5c1.5-1.4,2.7-2.9,3.4-4.8c6-18.2,11.2-36.6,14-55.6c1.3-9,2-18,2.2-27c0.1-9.1,0.6-18.8-3.2-27.6
			c-3-6.9-6.1-8-12.2-3.6c-8.9,6.4-15.8,14.8-21.9,23.9c-14.8,22.1-25.5,46.2-33.9,71.3c-2.4,7.2-6.3,14.3-5.2,22.1
			c1.2,8.8,0.9,17.6,0.7,26.3c-0.3,15.2-1.6,30.3-5.4,45.1c-0.9,3.4-2.4,6.5-4,9.6c-2.6,4.7-2,10.6,1.7,14.6c1.5,1.6,2.6,3.7,6,4.4
			c-3,0.6-4.9,0-6-1.2c-6.2-6.9-15.2-10.6-21-18c-3.5-4.5-6.9-9.1-9.5-14.2c-11.8-22.7-21.2-46.3-28.1-71
			c-4.1-14.6-7.7-29.2-10.6-44.1c-1.8-9.1-2.4-18.4-3.9-27.6c-2.2-13.2-1.9-26.5-1.7-39.8c0.2-10.5,0.9-21,5.3-30.9
			c4.4-9.9,11-14.1,21.7-12.8c3.9,0.5,6.8,3.1,9.7,5.5c8.2,6.9,13,16.2,17.3,25.6c7.7,16.9,13.2,34.7,17.3,52.9
			C504.2,234.2,506.6,244.9,508.4,255.8 M497.2,388.4c0.9-1,0.3-1.6,0-2.3c-3.1-9.6-5-19.5-4.8-29.6c0.2-9.2-0.4-18.4,0.7-27.7
			c1.1-8.5,1.9-17,3.5-25.4c0.9-5,3.2-10.1,2.6-14.9c-1.5-12-4.2-23.8-6.7-35.7c-4.6-21.4-11-42.3-19.5-62.5
			c-4.3-10.3-9-20.4-15.4-29.5c-1-1.5-2.3-2.8-4-2.7c-1.6,0.1-1.8,2.2-2.3,3.4c-2.9,7.8-3.6,16.1-3.9,24.4
			c-0.7,21.2,1.4,42.1,4.3,63.1c2.5,17.7,5.9,35.1,9.9,52.4c5.5,23.5,12.6,46.6,22.5,68.7C487.5,377,491.4,383.4,497.2,388.4
			 M651.3,268.3c-5.6,0.7-10.2,2.3-14.7,4.4c-16.1,7.6-30.6,17.8-44.7,28.4c-4,3-8.9,5.6-11,10.3c-3.8,8.2-7.6,16.3-12.2,24.1
			c-6.4,11.1-13.2,21.8-21.2,31.8c-2.5,3.1-6.3,5.6-7.9,11c5.3-3.2,9.6-5.7,13.8-8.4c21-13.7,40-29.9,58-47.2
			c9-8.6,17.5-18,24.6-28.3C641.7,286.4,648.1,278.5,651.3,268.3 M514.5,390.1c6.4-4.8,13.8-8.1,18.5-15.1c4.8-7.1,10-13.9,14-21.4
			c3.9-7.3,7.6-14.6,11.4-22c-0.5-0.3-0.9-0.6-1.4-0.8C541.3,349.4,521.5,365,514.5,390.1 M503.7,328.8c-3.1,16.6-5.6,33.2-2.8,50.2
			C505.8,362.5,506.1,345.7,503.7,328.8"/>
		<path class="st4" d="M769,430.4c-27.4,133.4-185,258.4-366.5,195c8.2-6.3,17.2-11.6,23.9-19.1c8.4-9.2,16.8-4.7,25.5-3
			c13,2.5,26,4.5,39.3,5.3c7.7,0.5,15.4,0.9,23.2,0.7c25.5-0.8,50.6-4.5,75-12c29.6-9.1,57.1-22.7,82.1-40.9
			c9.7-7.1,19-14.8,27.8-23c18.1-16.9,33.5-36,46.6-57c8.7-13.9,15.9-28.5,21.9-43.7C768.2,431.9,768.6,431.1,769,430.4"/>
		<path class="st1" d="M682.6,639c-8.5,8.9-18.4,16.4-28.2,23.7c-15.9,12-32.9,22.3-50.9,30.9c-25.1,12.1-51.3,21.1-78.8,26.1
			c-15.4,2.8-30.8,4.7-46.4,5.6c-7.4,0.4-14.8,0.9-22.1,0.6c-17-0.7-33.8-2.2-50.6-5.1c-16.2-2.8-32-7-47.6-12.2
			c-7.4-2.4-14.5-5.4-21.7-8.2c-1.9-0.7-2.2-1.6-0.8-3.3c9.6-11.3,17.7-23.8,26.6-35.6c2-2.6,3.4-3,6.6-1.5
			c25,12.1,51,20.9,78.4,25.8c11.8,2.1,23.7,3.7,35.6,4.7c13.8,1.2,27.6,1.1,41.4,0.5c17.6-0.8,35.1-3.5,52.3-7.5
			c26.9-6.3,52.7-15.7,77.1-28.7c9.1-4.8,18-9.8,26.5-15.7c0.7-0.5,1.2-0.8,2-0.8C682.2,638.6,682.4,638.8,682.6,639"/>
		<path class="st4" d="M238,261c-1.5,7.4-3.1,14.9-4.3,22.3c-1.6,9-3,18.1-3.2,27.3c-0.1,6.7-1.3,13.2-1,19.9
			c1,27,4.4,53.6,12.2,79.6c10.3,34.2,26.7,65.2,48.6,93.1c13.5,17.2,29.3,32.4,46.5,46.1c15,12,31.3,21.6,48,30.7
			c3.3,1.8,6.8,3.1,10.2,4.6c1.6,0.7,2.6,1.6,0.6,3c-9,6.3-16.9,13.9-25.3,20.9c-1.9,1.6-3,1.2-4.7,0.2c-16.5-9.3-32.3-19.6-46.8-32
			c-8.1-7-16.3-13.9-23.5-21.8c-14.9-16.5-28.5-33.9-39.5-53.4c-10.4-18.4-18.8-37.5-25-57.6c-4.6-14.9-7.8-30.1-9.8-45.6
			c-2-15.5-3.3-31-2.5-46.6c1.5-30.5,6.4-60.5,18.1-89c0.3-0.6,0.2-1.4,0.4-2C237.4,260.9,237.7,261,238,261"/>
		<path class="st1" d="M296.9,743.3c3.9-13.2,8.8-26.1,14.4-38.6c6.9-15.7,13.6-31.5,23.6-45.6c7-9.8,14.4-19.3,22.4-28.2
			c16.5-18.3,36-33.1,55.7-47.8c14.5-10.8,27.6-23.5,39.5-37.2c12.1-13.9,22.9-28.7,30.8-45.4c7.5-15.7,12.7-32.2,16.3-49.2
			c2.7-12.6,4.6-25.4,4.6-38.4c0-1.6,0.9-2.8,1.3-4.6c6.5,31.9,2.2,62.6-8.1,93.6c6.9-4.1,13.2-7.8,19.4-11.4
			c14.7-8.6,30.3-14.5,47.4-16.2c5.1-0.5,10.1-1,15.3-0.1c12.3,2.1,13.6,15.2,9,22.8c-5.5,9.1-13.6,15.5-22.3,21.3
			c-16.7,11.2-35,19.1-54.7,23.1c-7.3,1.5-14.9,2.6-22.2-0.7c-2-0.9-4.9-1.4-5-5.1c5.3,5,10.6,1.6,15.4,0.3
			c18.5-5.2,34.5-15.1,49.9-26.2c7.6-5.5,14.9-11.2,21.5-19.1c-8,0.7-15.1,1.9-22.1,3.6c-18.2,4.6-36,10.5-52.8,19
			c-3.1,1.6-5.1,3.6-6.6,6.9c-8.1,17.1-18.5,32.6-31.6,46.3c-20.2,21.1-43.3,38.8-66.7,56.1c-17.4,12.9-32.6,28-45.8,45.1
			c-15.5,20-28.5,41.6-40.7,63.7c-2,3.6-3.9,7.1-5.9,10.6c-0.5,0.8-0.5,2.3-2.1,1.3L296.9,743.3z"/>
		<path class="st1" d="M466.7,525.1c-7.1,3.4-14.2,2-20.9-0.9c-10.8-4.7-20.1-11.9-29-19.5c-12.8-11-24.1-23.6-33.4-37.8
			c-8.8-13.3-16.9-27-20.1-43c-1.6-8.1-2.2-16,2.7-23.4c4.8-7.4,13.5-8.6,21.7-6.7c8.5,2,15.7,6.8,22.2,12.4
			c17.4,15.2,30.7,33.6,41.1,54.1c6.5,12.8,11.1,26.3,13.6,40.4c0.9,5.1,0.2,10.2-0.8,15.3c-0.2,1-0.9,1.6-1.9,1.6
			c-1.3,0-1.4-0.9-1.4-1.8c0.1-14.4-7.1-26.3-13.8-38.2c-9.3-16.6-20.6-31.9-34-45.4c-8.4-8.5-18-15.5-28.4-21.3
			c-3.1-1.7-3.9,0.3-4.2,2.4c-0.6,3.3,0.6,6.6,1.3,9.8c2.8,13.2,9.4,24.7,16.2,36c10.6,17.7,23.1,34.1,38.1,48.5
			c6.3,6.1,13.6,10.9,20.7,15.8C459.4,525.6,463.3,524.2,466.7,525.1"/>
		<path class="st4" d="M303,747c2.4,1,4.6,1.8,6.8,2.8c6,2.7,11.9,5.5,18,8.2c1,0.4,2.3,0.7,2,2c-0.5,1.5-2,0.9-3.1,0.7
			c-8.2-2-16.4-4.2-24.6-6.2c-1.6-0.4-3.7-0.8-2.7-2.4C300.3,750.3,300.6,747.6,303,747"/>
		<path class="st1" d="M296.8,743.2c0.7,0.4,0.3,1,0.1,1.5c0,0.1-0.3,0.1-0.5,0.1c0.2-0.5,0.3-1.1,0.5-1.6
			C296.9,743.3,296.8,743.2,296.8,743.2"/>
		<path class="st1" d="M682,638.4c0.4-0.8,0.9-1,1.6-0.5c-0.3,0.4-0.7,0.7-1,1.1C682.4,638.8,682.2,638.6,682,638.4"/>
		<path class="st1" d="M81,802.9l33.2-37c3-3.3,3.9-7.3,2.7-12c-1.2-4.7-3.9-8.9-8-12.6c-4.1-3.6-8.4-5.8-13.1-6.5
			c-4.9-0.8-8.9,0.5-12,3.9l-4.8,5.4l17.4,15.6l-6.9,7.7L72,751.8l-21.4,23.9l-8.3-7.4l33.2-37c4.8-5.3,11.2-7.7,19.3-7.1
			c7.6,0.6,14.5,3.8,20.9,9.5c3.9,3.5,6.7,7,8.3,10.7l11-1.4l2.6,10.5l-9.8,1.2c1,7.4-0.7,13.6-5.3,18.7l-33.2,37L81,802.9z"/>
		<path class="st1" d="M75,831.9c-3.7-0.3-7.4-1.7-11-4.4c-5.2-3.9-8.1-8.7-8.6-14.1l4.5-5.9l-4.5-3.3l5.2-7l13.3,10l-7.8,10.4
			c0.7,1.5,1.7,2.6,2.7,3.5c2.7,2,4.7,2.1,6.1,0.2l6.3-8.5l8.9,6.7l-6.7,8.9C81.7,830.9,78.8,832.1,75,831.9"/>
		<path class="st1" d="M152.3,852.1l4-6.5c-8.6,1.6-16.7,0.1-24.2-4.6c-7.2-4.5-11.9-10.2-14-17c-2.1-6.8-1-13.6,3.1-20.2l26.3-42.2
			l9.4,5.9l-25.6,41.1c-2.8,4.4-3.5,8.7-2.3,13c1.2,4.3,4.2,7.9,8.9,10.8c4.5,2.8,9.7,4.2,15.6,4.1c5.8-0.2,9.9-2.2,12.3-6.1
			l25.7-41.2l9.4,5.9L161.7,858L152.3,852.1z"/>
		<path class="st1" d="M211.9,881.7c-10.3-4.2-17.4-9.7-21.1-16.6c-3.6-6.5-4.1-13.1-1.5-19.6c1.6-4,4.5-7.2,8.7-9.5
			c3.5-2.1,7.1-3.1,10.7-3.3c-2.5-2.1-4.3-4.8-5.5-8c-1.2-3.3-1.1-6.4,0.1-9.4c1-2.4,2.4-4.4,4.4-6c1.9-1.6,4.2-2.7,6.8-3.4
			c2.6-0.6,5.4-0.8,8.4-0.6c3,0.2,6,0.9,9.1,2.2c3.7,1.5,7.1,3.6,10.4,6.4l-3.8,9.5c-2.4-1.6-4.5-3-6.3-4c-1.8-1.1-3.1-1.8-4-2.1
			c-7.6-3.1-12.3-2.2-14.2,2.5c-2,5,1.4,9.4,10.3,13l8.9,3.6l-3.9,9.6l-7.4-3c-2.1-0.8-4.2-1.3-6.4-1.4c-2.2-0.1-4.4,0.1-6.4,0.7
			c-2,0.6-3.9,1.5-5.5,2.7c-1.6,1.2-2.8,2.8-3.6,4.7c-1.7,4.2-1.2,8.4,1.7,12.4c2.8,4,7.5,7.4,14.1,10c6.8,2.7,13.7,3.4,20.9,1.8
			l22.1-54.5l10.3,4.2l-23.7,58.4C235.6,886.9,224.5,886.8,211.9,881.7"/>
		<path class="st1" d="M272.3,806.8c-3.7-1.1-5.9-0.2-6.9,2.7l-0.6,2l-10.6-3.3l1-3.2c2.1-6.9,7.2-9,15.2-6.6l9.2,2.8l-2.2,7.1
			L272.3,806.8z"/>
		<path class="st1" d="M314.7,910.3l10.5-49c1-4.5-0.2-8.5-3.6-12c-3.4-3.5-7.8-5.8-13.2-7c-5.3-1.1-10.2-0.9-14.6,0.9
			c-4.7,1.8-7.5,5-8.5,9.6l-1.5,7.1l22.8,4.9l-2.2,10.2l-22.9-4.9l-6.8,31.7l-10.9-2.3l10.5-49c1.5-7.1,6-12.4,13.3-15.9
			c7-3.3,14.7-4.1,22.9-2.3c8.5,1.8,15.2,5.7,20.1,11.7c5.2,6,7,12.6,5.4,19.8l-10.5,49L314.7,910.3z"/>
		<polygon class="st1" points="317.3,940.6 318.9,927.7 311.5,926.8 312.7,917.6 331.1,919.9 328.3,942 		"/>
		<path class="st1" d="M453.4,916.3l-0.1-7.4c-6.1,5.9-13.1,8.9-21.2,9.1c-8.2,0.1-14.7-2.1-19.7-6.7c-5-4.6-7.5-10.7-7.6-18.2
			l-0.4-24.7c-0.1-5.2-2.1-9.2-6-12c-3.9-2.8-8.8-4.1-14.7-4c-8.9,0.1-15.6,3.2-20.2,9.1l0.8,46.2l11.1-0.2l0.2,10.2l-22.3,0.4
			l-1-59.3c7.2-10.9,17.7-16.4,31.2-16.7c9-0.2,16.4,1.8,22.2,5.9c6.4,4.5,9.6,10.7,9.8,18.6l0.4,26.3c0.1,4.6,1.6,8.2,4.6,10.9
			c3,2.7,7.1,4,12.3,3.9c5.1-0.1,9.7-1.8,14-5.1c4.2-3.2,6.2-7.1,6.1-11.8l-0.8-48.6l11.1-0.2l1.2,74.2L453.4,916.3z"/>
		<path class="st1" d="M541.1,873.7c1.8,7.5-0.2,14.2-5.9,20.1c-5.2,5.4-12.6,9.2-22.1,11.5c-8.5,2-17.5,2.7-26.8,2.1l-7.6-32.1
			l10-6l6.6,27.8c5.2,0.2,10.3-0.3,15.1-1.5c6.3-1.5,11.2-3.8,14.8-6.9c4.4-3.6,6-7.7,4.9-12.4c-1.9-7.9-9.8-11.4-23.8-10.4
			c-10.2,0.8-17.3,0.8-21.3,0.1c-6.8-1.3-10.8-4.6-12.1-9.9c-1.2-5.3,0.8-10.5,6.1-15.5c5.1-4.9,11.2-8.2,18.4-9.9
			c3.6-0.9,7.2-1.2,10.9-1c3.7,0.2,7.1,0.8,10.4,1.9c3.3,1.1,6.2,2.8,8.8,4.9c2.6,2.1,4.6,4.7,6.1,7.8l-11.7,2.8
			c-2.2-3-5.5-5.1-9.8-6.1c-4.3-1-8.6-1-12.9,0c-4,0.9-7.6,2.7-11,5.3c-3.1,2.5-4.4,4.7-4,6.6c0.7,2.9,7.9,3.8,21.8,2.7
			C526.1,854,537.9,860,541.1,873.7"/>
		<path class="st1" d="M612.7,845c3,7.2,2.4,14.1-1.8,20.8c-3.9,6.3-10,11.2-18.1,14.5c-8.3,3.5-16,4.2-23,2.1
			c-8-2.2-13.7-7.3-17.1-15.4l10.3-4.3c2.2,5.3,5.9,8.5,11.3,9.8c4.4,1,9.4,0.3,14.9-2c2.5-1,4.8-2.3,6.8-3.8c2-1.5,3.7-3.2,4.9-5.1
			c1.2-1.8,2.1-3.8,2.4-5.7c0.4-2,0.2-3.9-0.6-5.9c-2.4-5.8-10.2-6.8-23.2-2.8c-8.9,2.8-15.9,4.1-21.1,3.9
			c-7.1-0.3-11.8-3.3-14.2-9.1c-2.5-5.9-1.8-12,2.1-18.1c3.8-6.4,9.3-11.1,16.6-14.1c7.7-3.2,14.9-4.1,21.8-2.9
			c6.9,1.2,12.1,4.7,15.7,10.5l-10.8,4.5c-5.2-5.7-12.8-6.5-22.7-2.4c-2.2,0.9-4.2,2.1-6,3.5c-1.8,1.4-3.3,2.9-4.5,4.5
			c-1.2,1.6-1.9,3.1-2.4,4.7c-0.4,1.6-0.3,3.1,0.2,4.4c2,4.9,9.8,5,23.3,0.4C596.2,830.7,607.9,833.4,612.7,845"/>
		<path class="st1" d="M679.5,804.8c4.1,6.6,4.7,13.6,1.6,20.8c-2.9,6.9-8,12.6-15.5,17.3c-7.7,4.8-15.1,6.7-22.4,5.9
			c-8.2-0.8-14.7-5-19.3-12.4l9.5-5.9c3,4.8,7.3,7.4,12.7,7.8c4.5,0.2,9.3-1.2,14.3-4.3c2.3-1.4,4.3-3.1,6.1-4.9
			c1.8-1.8,3.1-3.8,4-5.8c0.9-2,1.4-4.1,1.5-6.1c0.1-2-0.5-3.9-1.6-5.7c-3.3-5.4-11.1-5-23.4,1c-8.3,4.2-15,6.6-20.1,7.3
			c-7,0.9-12.2-1.4-15.5-6.7c-3.4-5.5-3.7-11.5-0.9-18.2c2.7-6.9,7.4-12.5,14.1-16.7c7-4.4,14-6.5,21-6.4c7,0.1,12.7,2.7,17.2,7.8
			l-9.9,6.2c-6.1-4.8-13.7-4.4-22.8,1.3c-2,1.2-3.8,2.7-5.3,4.4c-1.6,1.7-2.8,3.4-3.7,5.1c-0.9,1.7-1.4,3.4-1.6,5
			c-0.2,1.6,0.2,3.1,1,4.3c2.8,4.5,10.5,3.4,23-3.4C660.9,793.3,672.9,794.1,679.5,804.8"/>
		<path class="st1" d="M746.3,771.4c-0.9,7.1-4.6,13.5-11,19.1c-6.6,5.8-14.3,8.7-23.1,8.6l5,5.7l-8.3,7.4l-49.2-55.6l8.3-7.4
			l32.2,36.4c3,3.4,7.4,4.7,13.2,4c5.8-0.9,10.7-3.1,14.7-6.6c4.2-3.7,6.5-7.7,7-12.1c0.5-4.4-1-8.5-4.4-12.4l-32.1-36.3l8.3-7.4
			l32.9,37.2C745.1,757.9,747.2,764.4,746.3,771.4"/>
		<path class="st6" d="M81,802.9l33.2-37c3-3.3,3.9-7.3,2.7-12c-1.2-4.7-3.9-8.9-8-12.6c-4.1-3.6-8.4-5.8-13.1-6.5
			c-4.9-0.8-8.9,0.5-12,3.9l-4.8,5.4l17.4,15.6l-6.9,7.7L72,751.8l-21.4,23.9l-8.3-7.4l33.2-37c4.8-5.3,11.2-7.7,19.3-7.1
			c7.6,0.6,14.5,3.8,20.9,9.5c3.9,3.5,6.7,7,8.3,10.7l11-1.4l2.6,10.5l-9.8,1.2c1,7.4-0.7,13.6-5.3,18.7l-33.2,37L81,802.9z"/>
		<path class="st6" d="M75,831.9c-3.7-0.3-7.4-1.7-11-4.4c-5.2-3.9-8.1-8.7-8.6-14.1l4.5-5.9l-4.5-3.3l5.2-7l13.3,10l-7.8,10.4
			c0.7,1.5,1.7,2.6,2.7,3.5c2.7,2,4.7,2.1,6.1,0.2l6.3-8.5l8.9,6.7l-6.7,8.9C81.7,830.9,78.8,832.1,75,831.9z"/>
		<path class="st6" d="M152.3,852.1l4-6.5c-8.6,1.6-16.7,0.1-24.2-4.6c-7.2-4.5-11.9-10.2-14-17c-2.1-6.8-1-13.6,3.1-20.2l26.3-42.2
			l9.4,5.9l-25.6,41.1c-2.8,4.4-3.5,8.7-2.3,13c1.2,4.3,4.2,7.9,8.9,10.8c4.5,2.8,9.7,4.2,15.6,4.1c5.8-0.2,9.9-2.2,12.3-6.1
			l25.7-41.2l9.4,5.9L161.7,858L152.3,852.1z"/>
		<path class="st6" d="M211.9,881.7c-10.3-4.2-17.4-9.7-21.1-16.6c-3.6-6.5-4.1-13.1-1.5-19.6c1.6-4,4.5-7.2,8.7-9.5
			c3.5-2.1,7.1-3.1,10.7-3.3c-2.5-2.1-4.3-4.8-5.5-8c-1.2-3.3-1.1-6.4,0.1-9.4c1-2.4,2.4-4.4,4.4-6c1.9-1.6,4.2-2.7,6.8-3.4
			c2.6-0.6,5.4-0.8,8.4-0.6c3,0.2,6,0.9,9.1,2.2c3.7,1.5,7.1,3.6,10.4,6.4l-3.8,9.5c-2.4-1.6-4.5-3-6.3-4c-1.8-1.1-3.1-1.8-4-2.1
			c-7.6-3.1-12.3-2.2-14.2,2.5c-2,5,1.4,9.4,10.3,13l8.9,3.6l-3.9,9.6l-7.4-3c-2.1-0.8-4.2-1.3-6.4-1.4c-2.2-0.1-4.4,0.1-6.4,0.7
			c-2,0.6-3.9,1.5-5.5,2.7c-1.6,1.2-2.8,2.8-3.6,4.7c-1.7,4.2-1.2,8.4,1.7,12.4c2.8,4,7.5,7.4,14.1,10c6.8,2.7,13.7,3.4,20.9,1.8
			l22.1-54.5l10.3,4.2l-23.7,58.4C235.6,886.9,224.5,886.8,211.9,881.7z"/>
		<path class="st6" d="M272.3,806.8c-3.7-1.1-5.9-0.2-6.9,2.7l-0.6,2l-10.6-3.3l1-3.2c2.1-6.9,7.2-9,15.2-6.6l9.2,2.8l-2.2,7.1
			L272.3,806.8z"/>
		<path class="st6" d="M314.7,910.3l10.5-49c1-4.5-0.2-8.5-3.6-12c-3.4-3.5-7.8-5.8-13.2-7c-5.3-1.1-10.2-0.9-14.6,0.9
			c-4.7,1.8-7.5,5-8.5,9.6l-1.5,7.1l22.8,4.9l-2.2,10.2l-22.9-4.9l-6.8,31.7l-10.9-2.3l10.5-49c1.5-7.1,6-12.4,13.3-15.9
			c7-3.3,14.7-4.1,22.9-2.3c8.5,1.8,15.2,5.7,20.1,11.7c5.2,6,7,12.6,5.4,19.8l-10.5,49L314.7,910.3z"/>
		<polygon class="st6" points="317.3,940.6 318.9,927.7 311.5,926.8 312.7,917.6 331.1,919.9 328.3,942 		"/>
		<path class="st6" d="M453.4,916.3l-0.1-7.4c-6.1,5.9-13.1,8.9-21.2,9.1c-8.2,0.1-14.7-2.1-19.7-6.7c-5-4.6-7.5-10.7-7.6-18.2
			l-0.4-24.7c-0.1-5.2-2.1-9.2-6-12c-3.9-2.8-8.8-4.1-14.7-4c-8.9,0.1-15.6,3.2-20.2,9.1l0.8,46.2l11.1-0.2l0.2,10.2l-22.3,0.4
			l-1-59.3c7.2-10.9,17.7-16.4,31.2-16.7c9-0.2,16.4,1.8,22.2,5.9c6.4,4.5,9.6,10.7,9.8,18.6l0.4,26.3c0.1,4.6,1.6,8.2,4.6,10.9
			c3,2.7,7.1,4,12.3,3.9c5.1-0.1,9.7-1.8,14-5.1c4.2-3.2,6.2-7.1,6.1-11.8l-0.8-48.6l11.1-0.2l1.2,74.2L453.4,916.3z"/>
		<path class="st6" d="M541.1,873.7c1.8,7.5-0.2,14.2-5.9,20.1c-5.2,5.4-12.6,9.2-22.1,11.5c-8.5,2-17.5,2.7-26.8,2.1l-7.6-32.1
			l10-6l6.6,27.8c5.2,0.2,10.3-0.3,15.1-1.5c6.3-1.5,11.2-3.8,14.8-6.9c4.4-3.6,6-7.7,4.9-12.4c-1.9-7.9-9.8-11.4-23.8-10.4
			c-10.2,0.8-17.3,0.8-21.3,0.1c-6.8-1.3-10.8-4.6-12.1-9.9c-1.2-5.3,0.8-10.5,6.1-15.5c5.1-4.9,11.2-8.2,18.4-9.9
			c3.6-0.9,7.2-1.2,10.9-1c3.7,0.2,7.1,0.8,10.4,1.9c3.3,1.1,6.2,2.8,8.8,4.9c2.6,2.1,4.6,4.7,6.1,7.8l-11.7,2.8
			c-2.2-3-5.5-5.1-9.8-6.1c-4.3-1-8.6-1-12.9,0c-4,0.9-7.6,2.7-11,5.3c-3.1,2.5-4.4,4.7-4,6.6c0.7,2.9,7.9,3.8,21.8,2.7
			C526.1,854,537.9,860,541.1,873.7z"/>
		<path class="st6" d="M612.7,845c3,7.2,2.4,14.1-1.8,20.8c-3.9,6.3-10,11.2-18.1,14.5c-8.3,3.5-16,4.2-23,2.1
			c-8-2.2-13.7-7.3-17.1-15.4l10.3-4.3c2.2,5.3,5.9,8.5,11.3,9.8c4.4,1,9.4,0.3,14.9-2c2.5-1,4.8-2.3,6.8-3.8c2-1.5,3.7-3.2,4.9-5.1
			c1.2-1.8,2.1-3.8,2.4-5.7c0.4-2,0.2-3.9-0.6-5.9c-2.4-5.8-10.2-6.8-23.2-2.8c-8.9,2.8-15.9,4.1-21.1,3.9
			c-7.1-0.3-11.8-3.3-14.2-9.1c-2.5-5.9-1.8-12,2.1-18.1c3.8-6.4,9.3-11.1,16.6-14.1c7.7-3.2,14.9-4.1,21.8-2.9
			c6.9,1.2,12.1,4.7,15.7,10.5l-10.8,4.5c-5.2-5.7-12.8-6.5-22.7-2.4c-2.2,0.9-4.2,2.1-6,3.5c-1.8,1.4-3.3,2.9-4.5,4.5
			c-1.2,1.6-1.9,3.1-2.4,4.7c-0.4,1.6-0.3,3.1,0.2,4.4c2,4.9,9.8,5,23.3,0.4C596.2,830.7,607.9,833.4,612.7,845z"/>
		<path class="st6" d="M679.5,804.8c4.1,6.6,4.7,13.6,1.6,20.8c-2.9,6.9-8,12.6-15.5,17.3c-7.7,4.8-15.1,6.7-22.4,5.9
			c-8.2-0.8-14.7-5-19.3-12.4l9.5-5.9c3,4.8,7.3,7.4,12.7,7.8c4.5,0.2,9.3-1.2,14.3-4.3c2.3-1.4,4.3-3.1,6.1-4.9
			c1.8-1.8,3.1-3.8,4-5.8c0.9-2,1.4-4.1,1.5-6.1c0.1-2-0.5-3.9-1.6-5.7c-3.3-5.4-11.1-5-23.4,1c-8.3,4.2-15,6.6-20.1,7.3
			c-7,0.9-12.2-1.4-15.5-6.7c-3.4-5.5-3.7-11.5-0.9-18.2c2.7-6.9,7.4-12.5,14.1-16.7c7-4.4,14-6.5,21-6.4c7,0.1,12.7,2.7,17.2,7.8
			l-9.9,6.2c-6.1-4.8-13.7-4.4-22.8,1.3c-2,1.2-3.8,2.7-5.3,4.4c-1.6,1.7-2.8,3.4-3.7,5.1c-0.9,1.7-1.4,3.4-1.6,5
			c-0.2,1.6,0.2,3.1,1,4.3c2.8,4.5,10.5,3.4,23-3.4C660.9,793.3,672.9,794.1,679.5,804.8z"/>
		<path class="st6" d="M746.3,771.4c-0.9,7.1-4.6,13.5-11,19.1c-6.6,5.8-14.3,8.7-23.1,8.6l5,5.7l-8.3,7.4l-49.2-55.6l8.3-7.4
			l32.2,36.4c3,3.4,7.4,4.7,13.2,4c5.8-0.9,10.7-3.1,14.7-6.6c4.2-3.7,6.5-7.7,7-12.1c0.5-4.4-1-8.5-4.4-12.4l-32.1-36.3l8.3-7.4
			l32.9,37.2C745.1,757.9,747.2,764.4,746.3,771.4z"/>
		<path class="st7" d="M81,802.9l33.2-37c3-3.3,3.9-7.3,2.7-12c-1.2-4.7-3.9-8.9-8-12.6c-4.1-3.6-8.4-5.8-13.1-6.5
			c-4.9-0.8-8.9,0.5-12,3.9l-4.8,5.4l17.4,15.6l-6.9,7.7L72,751.8l-21.4,23.9l-8.3-7.4l33.2-37c4.8-5.3,11.2-7.7,19.3-7.1
			c7.6,0.6,14.5,3.8,20.9,9.5c3.9,3.5,6.7,7,8.3,10.7l11-1.4l2.6,10.5l-9.8,1.2c1,7.4-0.7,13.6-5.3,18.7l-33.2,37L81,802.9z"/>
		<path class="st7" d="M75,831.9c-3.7-0.3-7.4-1.7-11-4.4c-5.2-3.9-8.1-8.7-8.6-14.1l4.5-5.9l-4.5-3.3l5.2-7l13.3,10l-7.8,10.4
			c0.7,1.5,1.7,2.6,2.7,3.5c2.7,2,4.7,2.1,6.1,0.2l6.3-8.5l8.9,6.7l-6.7,8.9C81.7,830.9,78.8,832.1,75,831.9z"/>
		<path class="st7" d="M152.3,852.1l4-6.5c-8.6,1.6-16.7,0.1-24.2-4.6c-7.2-4.5-11.9-10.2-14-17c-2.1-6.8-1-13.6,3.1-20.2l26.3-42.2
			l9.4,5.9l-25.6,41.1c-2.8,4.4-3.5,8.7-2.3,13c1.2,4.3,4.2,7.9,8.9,10.8c4.5,2.8,9.7,4.2,15.6,4.1c5.8-0.2,9.9-2.2,12.3-6.1
			l25.7-41.2l9.4,5.9L161.7,858L152.3,852.1z"/>
		<path class="st7" d="M211.9,881.7c-10.3-4.2-17.4-9.7-21.1-16.6c-3.6-6.5-4.1-13.1-1.5-19.6c1.6-4,4.5-7.2,8.7-9.5
			c3.5-2.1,7.1-3.1,10.7-3.3c-2.5-2.1-4.3-4.8-5.5-8c-1.2-3.3-1.1-6.4,0.1-9.4c1-2.4,2.4-4.4,4.4-6c1.9-1.6,4.2-2.7,6.8-3.4
			c2.6-0.6,5.4-0.8,8.4-0.6c3,0.2,6,0.9,9.1,2.2c3.7,1.5,7.1,3.6,10.4,6.4l-3.8,9.5c-2.4-1.6-4.5-3-6.3-4c-1.8-1.1-3.1-1.8-4-2.1
			c-7.6-3.1-12.3-2.2-14.2,2.5c-2,5,1.4,9.4,10.3,13l8.9,3.6l-3.9,9.6l-7.4-3c-2.1-0.8-4.2-1.3-6.4-1.4c-2.2-0.1-4.4,0.1-6.4,0.7
			c-2,0.6-3.9,1.5-5.5,2.7c-1.6,1.2-2.8,2.8-3.6,4.7c-1.7,4.2-1.2,8.4,1.7,12.4c2.8,4,7.5,7.4,14.1,10c6.8,2.7,13.7,3.4,20.9,1.8
			l22.1-54.5l10.3,4.2l-23.7,58.4C235.6,886.9,224.5,886.8,211.9,881.7z"/>
		<path class="st7" d="M272.3,806.8c-3.7-1.1-5.9-0.2-6.9,2.7l-0.6,2l-10.6-3.3l1-3.2c2.1-6.9,7.2-9,15.2-6.6l9.2,2.8l-2.2,7.1
			L272.3,806.8z"/>
		<path class="st7" d="M314.7,910.3l10.5-49c1-4.5-0.2-8.5-3.6-12c-3.4-3.5-7.8-5.8-13.2-7c-5.3-1.1-10.2-0.9-14.6,0.9
			c-4.7,1.8-7.5,5-8.5,9.6l-1.5,7.1l22.8,4.9l-2.2,10.2l-22.9-4.9l-6.8,31.7l-10.9-2.3l10.5-49c1.5-7.1,6-12.4,13.3-15.9
			c7-3.3,14.7-4.1,22.9-2.3c8.5,1.8,15.2,5.7,20.1,11.7c5.2,6,7,12.6,5.4,19.8l-10.5,49L314.7,910.3z"/>
		<polygon class="st7" points="317.3,940.6 318.9,927.7 311.5,926.8 312.7,917.6 331.1,919.9 328.3,942 		"/>
		<path class="st7" d="M453.4,916.3l-0.1-7.4c-6.1,5.9-13.1,8.9-21.2,9.1c-8.2,0.1-14.7-2.1-19.7-6.7c-5-4.6-7.5-10.7-7.6-18.2
			l-0.4-24.7c-0.1-5.2-2.1-9.2-6-12c-3.9-2.8-8.8-4.1-14.7-4c-8.9,0.1-15.6,3.2-20.2,9.1l0.8,46.2l11.1-0.2l0.2,10.2l-22.3,0.4
			l-1-59.3c7.2-10.9,17.7-16.4,31.2-16.7c9-0.2,16.4,1.8,22.2,5.9c6.4,4.5,9.6,10.7,9.8,18.6l0.4,26.3c0.1,4.6,1.6,8.2,4.6,10.9
			c3,2.7,7.1,4,12.3,3.9c5.1-0.1,9.7-1.8,14-5.1c4.2-3.2,6.2-7.1,6.1-11.8l-0.8-48.6l11.1-0.2l1.2,74.2L453.4,916.3z"/>
		<path class="st7" d="M541.1,873.7c1.8,7.5-0.2,14.2-5.9,20.1c-5.2,5.4-12.6,9.2-22.1,11.5c-8.5,2-17.5,2.7-26.8,2.1l-7.6-32.1
			l10-6l6.6,27.8c5.2,0.2,10.3-0.3,15.1-1.5c6.3-1.5,11.2-3.8,14.8-6.9c4.4-3.6,6-7.7,4.9-12.4c-1.9-7.9-9.8-11.4-23.8-10.4
			c-10.2,0.8-17.3,0.8-21.3,0.1c-6.8-1.3-10.8-4.6-12.1-9.9c-1.2-5.3,0.8-10.5,6.1-15.5c5.1-4.9,11.2-8.2,18.4-9.9
			c3.6-0.9,7.2-1.2,10.9-1c3.7,0.2,7.1,0.8,10.4,1.9c3.3,1.1,6.2,2.8,8.8,4.9c2.6,2.1,4.6,4.7,6.1,7.8l-11.7,2.8
			c-2.2-3-5.5-5.1-9.8-6.1c-4.3-1-8.6-1-12.9,0c-4,0.9-7.6,2.7-11,5.3c-3.1,2.5-4.4,4.7-4,6.6c0.7,2.9,7.9,3.8,21.8,2.7
			C526.1,854,537.9,860,541.1,873.7z"/>
		<path class="st7" d="M612.7,845c3,7.2,2.4,14.1-1.8,20.8c-3.9,6.3-10,11.2-18.1,14.5c-8.3,3.5-16,4.2-23,2.1
			c-8-2.2-13.7-7.3-17.1-15.4l10.3-4.3c2.2,5.3,5.9,8.5,11.3,9.8c4.4,1,9.4,0.3,14.9-2c2.5-1,4.8-2.3,6.8-3.8c2-1.5,3.7-3.2,4.9-5.1
			c1.2-1.8,2.1-3.8,2.4-5.7c0.4-2,0.2-3.9-0.6-5.9c-2.4-5.8-10.2-6.8-23.2-2.8c-8.9,2.8-15.9,4.1-21.1,3.9
			c-7.1-0.3-11.8-3.3-14.2-9.1c-2.5-5.9-1.8-12,2.1-18.1c3.8-6.4,9.3-11.1,16.6-14.1c7.7-3.2,14.9-4.1,21.8-2.9
			c6.9,1.2,12.1,4.7,15.7,10.5l-10.8,4.5c-5.2-5.7-12.8-6.5-22.7-2.4c-2.2,0.9-4.2,2.1-6,3.5c-1.8,1.4-3.3,2.9-4.5,4.5
			c-1.2,1.6-1.9,3.1-2.4,4.7c-0.4,1.6-0.3,3.1,0.2,4.4c2,4.9,9.8,5,23.3,0.4C596.2,830.7,607.9,833.4,612.7,845z"/>
		<path class="st7" d="M679.5,804.8c4.1,6.6,4.7,13.6,1.6,20.8c-2.9,6.9-8,12.6-15.5,17.3c-7.7,4.8-15.1,6.7-22.4,5.9
			c-8.2-0.8-14.7-5-19.3-12.4l9.5-5.9c3,4.8,7.3,7.4,12.7,7.8c4.5,0.2,9.3-1.2,14.3-4.3c2.3-1.4,4.3-3.1,6.1-4.9
			c1.8-1.8,3.1-3.8,4-5.8c0.9-2,1.4-4.1,1.5-6.1c0.1-2-0.5-3.9-1.6-5.7c-3.3-5.4-11.1-5-23.4,1c-8.3,4.2-15,6.6-20.1,7.3
			c-7,0.9-12.2-1.4-15.5-6.7c-3.4-5.5-3.7-11.5-0.9-18.2c2.7-6.9,7.4-12.5,14.1-16.7c7-4.4,14-6.5,21-6.4c7,0.1,12.7,2.7,17.2,7.8
			l-9.9,6.2c-6.1-4.8-13.7-4.4-22.8,1.3c-2,1.2-3.8,2.7-5.3,4.4c-1.6,1.7-2.8,3.4-3.7,5.1c-0.9,1.7-1.4,3.4-1.6,5
			c-0.2,1.6,0.2,3.1,1,4.3c2.8,4.5,10.5,3.4,23-3.4C660.9,793.3,672.9,794.1,679.5,804.8z"/>
		<path class="st7" d="M746.3,771.4c-0.9,7.1-4.6,13.5-11,19.1c-6.6,5.8-14.3,8.7-23.1,8.6l5,5.7l-8.3,7.4l-49.2-55.6l8.3-7.4
			l32.2,36.4c3,3.4,7.4,4.7,13.2,4c5.8-0.9,10.7-3.1,14.7-6.6c4.2-3.7,6.5-7.7,7-12.1c0.5-4.4-1-8.5-4.4-12.4l-32.1-36.3l8.3-7.4
			l32.9,37.2C745.1,757.9,747.2,764.4,746.3,771.4z"/>
		<path class="st1" d="M81,802.9l33.2-37c3-3.3,3.9-7.3,2.7-12c-1.2-4.7-3.9-8.9-8-12.6c-4.1-3.6-8.4-5.8-13.1-6.5
			c-4.9-0.8-8.9,0.5-12,3.9l-4.8,5.4l17.4,15.6l-6.9,7.7L72,751.8l-21.4,23.9l-8.3-7.4l33.2-37c4.8-5.3,11.2-7.7,19.3-7.1
			c7.6,0.6,14.5,3.8,20.9,9.5c3.9,3.5,6.7,7,8.3,10.7l11-1.4l2.6,10.5l-9.8,1.2c1,7.4-0.7,13.6-5.3,18.7l-33.2,37L81,802.9z"/>
		<path class="st1" d="M75,831.9c-3.7-0.3-7.4-1.7-11-4.4c-5.2-3.9-8.1-8.7-8.6-14.1l4.5-5.9l-4.5-3.3l5.2-7l13.3,10l-7.8,10.4
			c0.7,1.5,1.7,2.6,2.7,3.5c2.7,2,4.7,2.1,6.1,0.2l6.3-8.5l8.9,6.7l-6.7,8.9C81.7,830.9,78.8,832.1,75,831.9"/>
		<path class="st1" d="M152.3,852.1l4-6.5c-8.6,1.6-16.7,0.1-24.2-4.6c-7.2-4.5-11.9-10.2-14-17c-2.1-6.8-1-13.6,3.1-20.2l26.3-42.2
			l9.4,5.9l-25.6,41.1c-2.8,4.4-3.5,8.7-2.3,13c1.2,4.3,4.2,7.9,8.9,10.8c4.5,2.8,9.7,4.2,15.6,4.1c5.8-0.2,9.9-2.2,12.3-6.1
			l25.7-41.2l9.4,5.9L161.7,858L152.3,852.1z"/>
		<path class="st1" d="M211.9,881.7c-10.3-4.2-17.4-9.7-21.1-16.6c-3.6-6.5-4.1-13.1-1.5-19.6c1.6-4,4.5-7.2,8.7-9.5
			c3.5-2.1,7.1-3.1,10.7-3.3c-2.5-2.1-4.3-4.8-5.5-8c-1.2-3.3-1.1-6.4,0.1-9.4c1-2.4,2.4-4.4,4.4-6c1.9-1.6,4.2-2.7,6.8-3.4
			c2.6-0.6,5.4-0.8,8.4-0.6c3,0.2,6,0.9,9.1,2.2c3.7,1.5,7.1,3.6,10.4,6.4l-3.8,9.5c-2.4-1.6-4.5-3-6.3-4c-1.8-1.1-3.1-1.8-4-2.1
			c-7.6-3.1-12.3-2.2-14.2,2.5c-2,5,1.4,9.4,10.3,13l8.9,3.6l-3.9,9.6l-7.4-3c-2.1-0.8-4.2-1.3-6.4-1.4c-2.2-0.1-4.4,0.1-6.4,0.7
			c-2,0.6-3.9,1.5-5.5,2.7c-1.6,1.2-2.8,2.8-3.6,4.7c-1.7,4.2-1.2,8.4,1.7,12.4c2.8,4,7.5,7.4,14.1,10c6.8,2.7,13.7,3.4,20.9,1.8
			l22.1-54.5l10.3,4.2l-23.7,58.4C235.6,886.9,224.5,886.8,211.9,881.7"/>
		<path class="st1" d="M272.3,806.8c-3.7-1.1-5.9-0.2-6.9,2.7l-0.6,2l-10.6-3.3l1-3.2c2.1-6.9,7.2-9,15.2-6.6l9.2,2.8l-2.2,7.1
			L272.3,806.8z"/>
		<path class="st1" d="M314.7,910.3l10.5-49c1-4.5-0.2-8.5-3.6-12c-3.4-3.5-7.8-5.8-13.2-7c-5.3-1.1-10.2-0.9-14.6,0.9
			c-4.7,1.8-7.5,5-8.5,9.6l-1.5,7.1l22.8,4.9l-2.2,10.2l-22.9-4.9l-6.8,31.7l-10.9-2.3l10.5-49c1.5-7.1,6-12.4,13.3-15.9
			c7-3.3,14.7-4.1,22.9-2.3c8.5,1.8,15.2,5.7,20.1,11.7c5.2,6,7,12.6,5.4,19.8l-10.5,49L314.7,910.3z"/>
		<polygon class="st1" points="317.3,940.6 318.9,927.7 311.5,926.8 312.7,917.6 331.1,919.9 328.3,942 		"/>
		<path class="st1" d="M453.4,916.3l-0.1-7.4c-6.1,5.9-13.1,8.9-21.2,9.1c-8.2,0.1-14.7-2.1-19.7-6.7c-5-4.6-7.5-10.7-7.6-18.2
			l-0.4-24.7c-0.1-5.2-2.1-9.2-6-12c-3.9-2.8-8.8-4.1-14.7-4c-8.9,0.1-15.6,3.2-20.2,9.1l0.8,46.2l11.1-0.2l0.2,10.2l-22.3,0.4
			l-1-59.3c7.2-10.9,17.7-16.4,31.2-16.7c9-0.2,16.4,1.8,22.2,5.9c6.4,4.5,9.6,10.7,9.8,18.6l0.4,26.3c0.1,4.6,1.6,8.2,4.6,10.9
			c3,2.7,7.1,4,12.3,3.9c5.1-0.1,9.7-1.8,14-5.1c4.2-3.2,6.2-7.1,6.1-11.8l-0.8-48.6l11.1-0.2l1.2,74.2L453.4,916.3z"/>
		<path class="st1" d="M541.1,873.7c1.8,7.5-0.2,14.2-5.9,20.1c-5.2,5.4-12.6,9.2-22.1,11.5c-8.5,2-17.5,2.7-26.8,2.1l-7.6-32.1
			l10-6l6.6,27.8c5.2,0.2,10.3-0.3,15.1-1.5c6.3-1.5,11.2-3.8,14.8-6.9c4.4-3.6,6-7.7,4.9-12.4c-1.9-7.9-9.8-11.4-23.8-10.4
			c-10.2,0.8-17.3,0.8-21.3,0.1c-6.8-1.3-10.8-4.6-12.1-9.9c-1.2-5.3,0.8-10.5,6.1-15.5c5.1-4.9,11.2-8.2,18.4-9.9
			c3.6-0.9,7.2-1.2,10.9-1c3.7,0.2,7.1,0.8,10.4,1.9c3.3,1.1,6.2,2.8,8.8,4.9c2.6,2.1,4.6,4.7,6.1,7.8l-11.7,2.8
			c-2.2-3-5.5-5.1-9.8-6.1c-4.3-1-8.6-1-12.9,0c-4,0.9-7.6,2.7-11,5.3c-3.1,2.5-4.4,4.7-4,6.6c0.7,2.9,7.9,3.8,21.8,2.7
			C526.1,854,537.9,860,541.1,873.7"/>
		<path class="st1" d="M612.7,845c3,7.2,2.4,14.1-1.8,20.8c-3.9,6.3-10,11.2-18.1,14.5c-8.3,3.5-16,4.2-23,2.1
			c-8-2.2-13.7-7.3-17.1-15.4l10.3-4.3c2.2,5.3,5.9,8.5,11.3,9.8c4.4,1,9.4,0.3,14.9-2c2.5-1,4.8-2.3,6.8-3.8c2-1.5,3.7-3.2,4.9-5.1
			c1.2-1.8,2.1-3.8,2.4-5.7c0.4-2,0.2-3.9-0.6-5.9c-2.4-5.8-10.2-6.8-23.2-2.8c-8.9,2.8-15.9,4.1-21.1,3.9
			c-7.1-0.3-11.8-3.3-14.2-9.1c-2.5-5.9-1.8-12,2.1-18.1c3.8-6.4,9.3-11.1,16.6-14.1c7.7-3.2,14.9-4.1,21.8-2.9
			c6.9,1.2,12.1,4.7,15.7,10.5l-10.8,4.5c-5.2-5.7-12.8-6.5-22.7-2.4c-2.2,0.9-4.2,2.1-6,3.5c-1.8,1.4-3.3,2.9-4.5,4.5
			c-1.2,1.6-1.9,3.1-2.4,4.7c-0.4,1.6-0.3,3.1,0.2,4.4c2,4.9,9.8,5,23.3,0.4C596.2,830.7,607.9,833.4,612.7,845"/>
		<path class="st1" d="M679.5,804.8c4.1,6.6,4.7,13.6,1.6,20.8c-2.9,6.9-8,12.6-15.5,17.3c-7.7,4.8-15.1,6.7-22.4,5.9
			c-8.2-0.8-14.7-5-19.3-12.4l9.5-5.9c3,4.8,7.3,7.4,12.7,7.8c4.5,0.2,9.3-1.2,14.3-4.3c2.3-1.4,4.3-3.1,6.1-4.9
			c1.8-1.8,3.1-3.8,4-5.8c0.9-2,1.4-4.1,1.5-6.1c0.1-2-0.5-3.9-1.6-5.7c-3.3-5.4-11.1-5-23.4,1c-8.3,4.2-15,6.6-20.1,7.3
			c-7,0.9-12.2-1.4-15.5-6.7c-3.4-5.5-3.7-11.5-0.9-18.2c2.7-6.9,7.4-12.5,14.1-16.7c7-4.4,14-6.5,21-6.4c7,0.1,12.7,2.7,17.2,7.8
			l-9.9,6.2c-6.1-4.8-13.7-4.4-22.8,1.3c-2,1.2-3.8,2.7-5.3,4.4c-1.6,1.7-2.8,3.4-3.7,5.1c-0.9,1.7-1.4,3.4-1.6,5
			c-0.2,1.6,0.2,3.1,1,4.3c2.8,4.5,10.5,3.4,23-3.4C660.9,793.3,672.9,794.1,679.5,804.8"/>
		<path class="st1" d="M746.3,771.4c-0.9,7.1-4.6,13.5-11,19.1c-6.6,5.8-14.3,8.7-23.1,8.6l5,5.7l-8.3,7.4l-49.2-55.6l8.3-7.4
			l32.2,36.4c3,3.4,7.4,4.7,13.2,4c5.8-0.9,10.7-3.1,14.7-6.6c4.2-3.7,6.5-7.7,7-12.1c0.5-4.4-1-8.5-4.4-12.4l-32.1-36.3l8.3-7.4
			l32.9,37.2C745.1,757.9,747.2,764.4,746.3,771.4"/>
	</g>
</g>
</svg>
